<svg width="1115" height="339" viewBox="0 0 1115 339" fill="none" xmlns="http://www.w3.org/2000/svg">
<path fill-rule="evenodd" clip-rule="evenodd" d="M1100.09 9.37241L1098.84 1.14881C1098.82 0.968513 1098.84 0.784105 1098.91 0.615627C1098.98 0.447149 1099.09 0.301044 1099.24 0.193187C1099.39 0.0853292 1099.56 0.0198442 1099.74 0.00384652C1099.93 -0.0121512 1100.11 0.0219502 1100.27 0.102446L1114.46 7.04984C1115.05 7.33872 1115.19 8.22573 1114.71 8.6747L1103.21 19.5069C1103.08 19.6312 1102.91 19.7169 1102.73 19.7547C1102.56 19.7926 1102.37 19.7811 1102.2 19.7216C1102.03 19.6621 1101.87 19.5568 1101.76 19.417C1101.64 19.2773 1101.56 19.1083 1101.54 18.9284L1100.39 11.3482C1098.73 11.5719 1097.1 11.7991 1095.47 12.0297L1095.19 10.0515C1096.81 9.82179 1098.44 9.59541 1100.09 9.37241ZM1103.23 16.7449L1112.29 8.20931L1101.11 2.73462L1103.23 16.7449Z" fill="#6FFFE9"/>
<path d="M1075.48 15.1625C1078.76 14.5964 1082.11 14.046 1085.53 13.5116L1085.22 11.5377C1081.79 12.0736 1078.44 12.6257 1075.14 13.1936L1075.48 15.1625Z" fill="#6FFFE9"/>
<path d="M1055.69 18.9337C1058.91 18.2561 1062.22 17.5961 1065.59 16.954L1065.22 14.9912C1061.83 15.6356 1058.52 16.2981 1055.27 16.9783L1055.69 18.9337Z" fill="#6FFFE9"/>
<path d="M1035.99 23.5105C1039.17 22.6938 1042.43 21.8971 1045.78 21.1209L1045.32 19.1747C1041.96 19.9543 1038.69 20.7547 1035.49 21.5754L1035.99 23.5105Z" fill="#6FFFE9"/>
<path d="M1016.6 29.0454C1019.74 28.0497 1022.98 27.0776 1026.31 26.1295L1025.76 24.208C1022.41 25.1613 1019.16 26.1391 1016 27.1409L1016.6 29.0454Z" fill="#6FFFE9"/>
<path d="M997.562 35.8013C1000.61 34.5931 1003.75 33.4122 1007.01 32.2593L1006.34 30.376C1003.06 31.5369 999.893 32.7266 996.824 33.9443L997.562 35.8013Z" fill="#6FFFE9"/>
<path d="M568.076 32.0943C564.812 31.9417 561.483 31.9075 558.09 32.0007L558.145 33.998C561.489 33.9061 564.768 33.9398 567.982 34.0901L568.076 32.0943Z" fill="#6FFFE9"/>
<path d="M548.124 32.6312C544.875 32.9516 541.574 33.3881 538.22 33.9479L538.55 35.9186C541.859 35.3661 545.117 34.9355 548.32 34.6195L548.124 32.6312Z" fill="#6FFFE9"/>
<path d="M587.938 34.5765C584.726 33.9141 581.435 33.3672 578.064 32.947L577.817 34.9296C581.134 35.3432 584.374 35.8815 587.534 36.5332L587.938 34.5765Z" fill="#6FFFE9"/>
<path d="M528.423 35.9066C525.247 36.6454 522.029 37.4943 518.768 38.4588L519.335 40.3747C522.559 39.4212 525.739 38.5824 528.877 37.8526L528.423 35.9066Z" fill="#6FFFE9"/>
<path d="M607.134 40.1899C604.064 39.0123 600.895 37.9399 597.632 36.9867L597.071 38.9045C600.281 39.8422 603.398 40.8971 606.418 42.0553L607.134 40.1899Z" fill="#6FFFE9"/>
<path d="M979.181 44.0335C982.095 42.5606 985.124 41.1197 988.275 39.7119L987.459 37.8879C984.28 39.3083 981.222 40.7628 978.279 42.2505L979.181 44.0335Z" fill="#6FFFE9"/>
<path d="M509.279 41.555C506.212 42.649 503.11 43.8448 499.974 45.1469L500.741 46.9919C503.846 45.7027 506.916 44.5191 509.951 43.4368L509.279 41.555Z" fill="#6FFFE9"/>
<path d="M625.156 48.8656C622.325 47.2016 619.376 45.624 616.313 44.15L615.446 45.9502C618.458 47.3999 621.359 48.9515 624.143 50.588L625.156 48.8656Z" fill="#6FFFE9"/>
<path d="M961.763 54.0717C964.488 52.279 967.339 50.5239 970.324 48.8075L969.327 47.0757C966.309 48.8114 963.424 50.5875 960.664 52.4026L961.763 54.0717Z" fill="#6FFFE9"/>
<path d="M490.862 49.1893C489.355 49.9002 487.841 50.6355 486.32 51.3957C484.838 52.1365 483.366 52.8838 481.906 53.6376L482.823 55.4128C484.276 54.6631 485.739 53.9197 487.214 53.1828C488.722 52.4292 490.222 51.7005 491.715 50.9961L490.862 49.1893Z" fill="#6FFFE9"/>
<path d="M641.497 60.4034C638.992 58.297 636.343 56.2493 633.554 54.2816L632.401 55.9139C635.143 57.8487 637.747 59.8619 640.21 61.9324L641.497 60.4034Z" fill="#6FFFE9"/>
<path d="M945.778 66.1864C948.24 64.0326 950.831 61.9218 953.562 59.8554L952.356 58.2623C949.587 60.357 946.96 62.4978 944.462 64.6829L945.778 66.1864Z" fill="#6FFFE9"/>
<path d="M473.216 58.2704C470.314 59.8681 467.461 61.4916 464.657 63.1399L465.671 64.8621C468.458 63.2235 471.295 61.6092 474.181 60.0204L473.216 58.2704Z" fill="#6FFFE9"/>
<path d="M655.615 74.5783C653.551 72.0851 651.303 69.6078 648.876 67.1751L647.46 68.5859C649.844 70.9753 652.051 73.4069 654.075 75.852L655.615 74.5783Z" fill="#6FFFE9"/>
<path d="M456.243 68.255C453.434 70.0202 450.682 71.8109 447.986 73.6257L449.103 75.2828C451.781 73.4798 454.516 71.7006 457.307 69.9463L456.243 68.255Z" fill="#6FFFE9"/>
<path d="M931.687 80.5032C933.819 77.984 936.07 75.5116 938.456 73.0879L937.031 71.6867C934.609 74.1468 932.324 76.6563 930.161 79.2129L931.687 80.5032Z" fill="#6FFFE9"/>
<path d="M439.906 79.2633C437.213 81.2111 434.585 83.1838 432.023 85.1801L433.252 86.7557C435.795 84.7745 438.404 82.8161 441.078 80.882L439.906 79.2633Z" fill="#6FFFE9"/>
<path d="M666.678 91.2981C665.255 88.452 663.562 85.5415 661.609 82.6127L659.946 83.7207C661.856 86.5851 663.506 89.4241 664.89 92.1914L666.678 91.2981Z" fill="#6FFFE9"/>
<path d="M919.852 96.7199C921.632 93.8963 923.506 91.1202 925.492 88.3935L923.876 87.2174C921.862 89.9824 919.963 92.7958 918.161 95.6551L919.852 96.7199Z" fill="#6FFFE9"/>
<path d="M424.362 91.3894C421.815 93.5377 419.344 95.7103 416.953 97.9055L418.305 99.3772C420.675 97.2013 423.125 95.0471 425.651 92.9164L424.362 91.3894Z" fill="#6FFFE9"/>
<path d="M671.656 105.56C671.374 103.977 670.976 102.337 670.465 100.653L668.552 101.233C669.042 102.849 669.421 104.412 669.688 105.91C669.96 107.436 670.202 109.046 670.406 110.735L672.391 110.495C672.182 108.77 671.935 107.123 671.656 105.56Z" fill="#6FFFE9"/>
<path d="M910.119 114.327C911.597 111.302 913.134 108.322 914.75 105.387L912.999 104.424C911.366 107.39 909.813 110.4 908.323 113.451L910.119 114.327Z" fill="#6FFFE9"/>
<path d="M409.831 104.743C407.476 107.112 405.212 109.504 403.042 111.917L404.528 113.253C406.676 110.865 408.917 108.497 411.249 106.152L409.831 104.743Z" fill="#6FFFE9"/>
<path d="M396.637 119.44C394.541 122.047 392.554 124.676 390.68 127.324L392.312 128.478C394.162 125.864 396.124 123.268 398.195 120.692L396.637 119.44Z" fill="#6FFFE9"/>
<path d="M672.853 130.514C673.09 127.018 673.158 123.67 673.089 120.496L671.091 120.539C671.158 123.655 671.091 126.943 670.859 130.379L672.853 130.514Z" fill="#6FFFE9"/>
<path d="M901.932 132.763C903.218 129.626 904.528 126.527 905.879 123.469L904.051 122.662C902.69 125.74 901.373 128.855 900.082 132.006L901.932 132.763Z" fill="#6FFFE9"/>
<path d="M385.247 135.575C383.506 138.429 381.896 141.303 380.423 144.193L382.204 145.101C383.653 142.257 385.238 139.428 386.953 136.615L385.247 135.575Z" fill="#6FFFE9"/>
<path d="M669.847 150.26C670.64 146.91 671.269 143.637 671.756 140.455L669.78 140.153C669.301 143.283 668.682 146.503 667.902 149.8L669.847 150.26Z" fill="#6FFFE9"/>
<path d="M894.555 151.575C895.769 148.398 896.976 145.253 898.19 142.142L896.328 141.416C895.111 144.534 893.902 147.683 892.687 150.861L894.555 151.575Z" fill="#6FFFE9"/>
<path d="M376.29 153.211C375.028 156.312 373.924 159.428 372.984 162.555L374.898 163.13C375.82 160.065 376.902 157.008 378.141 153.963L376.29 153.211Z" fill="#6FFFE9"/>
<path d="M663.744 169.29C665.038 166.112 666.173 162.973 667.165 159.883L665.262 159.273C664.285 162.315 663.167 165.407 661.893 168.537L663.744 169.29Z" fill="#6FFFE9"/>
<path d="M887.26 170.473C888.516 167.3 889.736 164.153 890.936 161.034L889.07 160.318C887.872 163.433 886.654 166.574 885.401 169.738L887.26 170.473Z" fill="#6FFFE9"/>
<path d="M370.619 172.176C369.994 175.449 369.551 178.731 369.297 182.016L371.29 182.17C371.538 178.961 371.971 175.753 372.582 172.551L370.619 172.176Z" fill="#6FFFE9"/>
<path d="M654.9 187.194C656.627 184.241 658.206 181.304 659.647 178.39L657.855 177.505C656.435 180.377 654.878 183.273 653.174 186.186L654.9 187.194Z" fill="#6FFFE9"/>
<path d="M881.483 184.549C882.155 182.981 882.813 181.418 883.459 179.86L881.613 179.094C880.969 180.646 880.314 182.202 879.646 183.763C878.992 185.29 878.335 186.815 877.673 188.337L879.506 189.134C880.17 187.607 880.829 186.079 881.483 184.549Z" fill="#6FFFE9"/>
<path d="M369.11 191.943C369.242 195.24 369.569 198.537 370.098 201.828L372.072 201.511C371.556 198.299 371.236 195.081 371.107 191.863L369.11 191.943Z" fill="#6FFFE9"/>
<path d="M643.712 203.722C645.803 201.02 647.757 198.32 649.582 195.626L647.927 194.506C646.126 197.164 644.196 199.831 642.131 202.499L643.712 203.722Z" fill="#6FFFE9"/>
<path d="M871.224 207.32C872.667 204.316 874.073 201.296 875.451 198.263L873.631 197.437C872.259 200.458 870.858 203.466 869.422 206.455L871.224 207.32Z" fill="#6FFFE9"/>
<path d="M630.61 218.745C632.984 216.313 635.234 213.874 637.368 211.431L635.862 210.118C633.753 212.532 631.527 214.944 629.179 217.35L630.61 218.745Z" fill="#6FFFE9"/>
<path d="M372.245 211.51C373.135 214.648 374.214 217.776 375.488 220.891L377.338 220.135C376.092 217.088 375.037 214.031 374.168 210.965L372.245 211.51Z" fill="#6FFFE9"/>
<path d="M862.067 225.102C863.687 222.184 865.254 219.24 866.777 216.276L864.999 215.363C863.485 218.31 861.928 221.235 860.319 224.133L862.067 225.102Z" fill="#6FFFE9"/>
<path d="M615.975 232.274C618.581 230.091 621.076 227.896 623.463 225.692L622.107 224.224C619.743 226.407 617.273 228.58 614.691 230.742L615.975 232.274Z" fill="#6FFFE9"/>
<path d="M379.728 229.882C381.251 232.726 382.943 235.555 384.807 238.367L386.474 237.263C384.643 234.502 382.983 231.726 381.49 228.939L379.728 229.882Z" fill="#6FFFE9"/>
<path d="M851.693 242.23C853.544 239.439 855.328 236.616 857.051 233.766L855.34 232.732C853.63 235.561 851.862 238.36 850.027 241.125L851.693 242.23Z" fill="#6FFFE9"/>
<path d="M600.145 244.376C602.925 242.431 605.606 240.471 608.19 238.498L606.976 236.91C604.415 238.866 601.757 240.81 598.999 242.739L600.145 244.376Z" fill="#6FFFE9"/>
<path d="M390.616 246.366C392.611 248.888 394.751 251.394 397.038 253.881L398.51 252.529C396.255 250.077 394.147 247.609 392.184 245.127L390.616 246.366Z" fill="#6FFFE9"/>
<path d="M583.4 255.152C586.313 253.425 589.136 251.681 591.873 249.921L590.791 248.241C588.076 249.987 585.273 251.718 582.38 253.433L583.4 255.152Z" fill="#6FFFE9"/>
<path d="M839.851 258.382C841.968 255.774 844.005 253.128 845.968 250.447L844.355 249.267C842.41 251.922 840.394 254.542 838.299 257.123L839.851 258.382Z" fill="#6FFFE9"/>
<path d="M565.933 264.737C568.952 263.203 571.89 261.652 574.749 260.084L573.787 258.332C570.947 259.89 568.028 261.431 565.027 262.956L565.933 264.737Z" fill="#6FFFE9"/>
<path d="M403.967 260.925C405.159 262.061 406.383 263.193 407.64 264.32C408.899 265.449 410.141 266.567 411.365 267.673L412.706 266.191C411.48 265.084 410.236 263.964 408.975 262.833C407.733 261.719 406.524 260.601 405.347 259.479L403.967 260.925Z" fill="#6FFFE9"/>
<path d="M826.401 273.249C828.798 270.874 831.106 268.455 833.329 265.995L831.846 264.655C829.646 267.089 827.365 269.481 824.994 271.83L826.401 273.249Z" fill="#6FFFE9"/>
<path d="M547.921 273.243C551.008 271.888 554.022 270.516 556.964 269.128L556.111 267.321C553.185 268.702 550.188 270.066 547.118 271.413L547.921 273.243Z" fill="#6FFFE9"/>
<path d="M418.766 274.382C421.286 276.671 423.747 278.904 426.165 281.08L427.502 279.595C425.088 277.423 422.63 275.192 420.11 272.904L418.766 274.382Z" fill="#6FFFE9"/>
<path d="M534.11 278.991C535.687 278.368 537.247 277.742 538.791 277.111L538.034 275.261C536.498 275.889 534.946 276.513 533.376 277.132C531.893 277.717 530.371 278.295 528.811 278.865L529.498 280.742C531.073 280.166 532.611 279.582 534.11 278.991Z" fill="#6FFFE9"/>
<path d="M811.381 286.544C814.039 284.445 816.601 282.3 819.075 280.11L817.749 278.614C815.304 280.779 812.77 282.901 810.142 284.976L811.381 286.544Z" fill="#6FFFE9"/>
<path d="M510.199 286.916C513.553 285.97 516.795 285.001 519.917 284.007L519.311 282.103C516.211 283.09 512.991 284.053 509.656 284.993L510.199 286.916Z" fill="#6FFFE9"/>
<path d="M433.652 287.734C436.208 289.97 438.739 292.138 441.267 294.238L442.544 292.701C440.032 290.615 437.515 288.457 434.968 286.23L433.652 287.734Z" fill="#6FFFE9"/>
<path d="M490.698 291.871C494.028 291.106 497.277 290.323 500.441 289.522L499.95 287.585C496.801 288.383 493.567 289.162 490.25 289.924L490.698 291.871Z" fill="#6FFFE9"/>
<path d="M795.002 298.078C797.877 296.276 800.658 294.427 803.349 292.534L802.198 290.9C799.536 292.773 796.785 294.602 793.94 296.385L795.002 298.078Z" fill="#6FFFE9"/>
<path d="M470.875 296.039C474.262 295.386 477.585 294.718 480.841 294.035L480.43 292.08C477.186 292.761 473.873 293.427 470.496 294.078L470.875 296.039Z" fill="#6FFFE9"/>
<path d="M461.054 297.859C457.803 298.439 454.501 299.005 451.149 299.559C453.519 301.362 455.907 303.101 458.334 304.777L457.198 306.421C454.454 304.526 451.76 302.552 449.091 300.502L450.309 298.918C450.573 299.121 450.838 299.323 451.102 299.524L450.783 297.595C454.141 297.04 457.448 296.472 460.703 295.893L461.054 297.859Z" fill="#6FFFE9"/>
<path d="M431.212 302.629C434.558 302.149 437.864 301.659 441.128 301.157L440.824 299.182C437.567 299.683 434.267 300.173 430.928 300.652L431.212 302.629Z" fill="#6FFFE9"/>
<path d="M777.504 307.841C780.551 306.331 783.507 304.776 786.375 303.178L785.401 301.433C782.562 303.015 779.635 304.555 776.617 306.051L777.504 307.841Z" fill="#6FFFE9"/>
<path d="M411.239 305.312C414.585 304.891 417.898 304.461 421.176 304.022L420.911 302.041C417.638 302.48 414.33 302.91 410.99 303.329L411.239 305.312Z" fill="#6FFFE9"/>
<path d="M391.223 307.674C394.583 307.302 397.916 306.921 401.22 306.532L400.986 304.547C397.686 304.936 394.358 305.317 391.003 305.688L391.223 307.674Z" fill="#6FFFE9"/>
<path d="M371.181 309.763C374.548 309.433 377.893 309.095 381.214 308.749L381.007 306.762C377.69 307.108 374.349 307.445 370.986 307.775L371.181 309.763Z" fill="#6FFFE9"/>
<path d="M351.122 311.615C354.491 311.322 357.843 311.022 361.175 310.715L360.991 308.725C357.663 309.032 354.315 309.332 350.949 309.625L351.122 311.615Z" fill="#6FFFE9"/>
<path d="M465.635 311.886C468.473 313.602 471.388 315.24 474.404 316.799L475.323 315.024C472.347 313.486 469.471 311.87 466.669 310.176L465.635 311.886Z" fill="#6FFFE9"/>
<path d="M759.159 315.918C762.331 314.682 765.418 313.402 768.423 312.081L767.618 310.252C764.64 311.562 761.579 312.83 758.432 314.057L759.159 315.918Z" fill="#6FFFE9"/>
<path d="M331.051 313.258C334.42 312.999 337.774 312.732 341.114 312.459L340.95 310.468C337.615 310.741 334.263 311.007 330.897 311.266L331.051 313.258Z" fill="#6FFFE9"/>
<path d="M310.969 314.716C314.336 314.486 317.692 314.25 321.036 314.007L320.891 312.014C317.55 312.257 314.197 312.493 310.833 312.722L310.969 314.716Z" fill="#6FFFE9"/>
<path d="M290.879 316.005C294.243 315.802 297.599 315.594 300.945 315.379L300.817 313.385C297.473 313.6 294.12 313.808 290.759 314.011L290.879 316.005Z" fill="#6FFFE9"/>
<path d="M270.781 317.142C274.141 316.964 277.496 316.781 280.845 316.591L280.732 314.596C277.386 314.786 274.033 314.969 270.676 315.147L270.781 317.142Z" fill="#6FFFE9"/>
<path d="M250.677 318.139C254.033 317.983 257.387 317.823 260.737 317.657L260.638 315.661C257.29 315.827 253.938 315.988 250.584 316.143L250.677 318.139Z" fill="#6FFFE9"/>
<path d="M230.566 319.005C233.918 318.871 237.271 318.732 240.623 318.587L240.537 316.591C237.187 316.735 233.836 316.874 230.486 317.008L230.566 319.005Z" fill="#6FFFE9"/>
<path d="M210.449 319.748C213.798 319.634 217.15 319.515 220.504 319.391L220.43 317.395C217.078 317.519 213.728 317.638 210.381 317.752L210.449 319.748Z" fill="#6FFFE9"/>
<path d="M740.227 322.457C743.475 321.468 746.644 320.44 749.736 319.374L749.084 317.486C746.015 318.543 742.87 319.564 739.645 320.545L740.227 322.457Z" fill="#6FFFE9"/>
<path d="M190.329 320.377C193.675 320.282 197.026 320.182 200.381 320.077L200.318 318.08C196.965 318.185 193.616 318.285 190.272 318.38L190.329 320.377Z" fill="#6FFFE9"/>
<path d="M-26 320.518C-24.376 320.568 -22.7329 320.616 -21.0714 320.663L-21.0146 318.666C-22.6748 318.619 -24.3165 318.57 -25.9392 318.521L-26 320.518Z" fill="#6FFFE9"/>
<path d="M170.206 320.896C173.547 320.818 176.898 320.737 180.254 320.65L180.203 318.653C176.848 318.739 173.499 318.821 170.159 318.898L170.206 320.896Z" fill="#6FFFE9"/>
<path d="M-10.929 320.933C-7.65797 321.013 -4.32437 321.09 -0.931412 321.163L-0.888657 319.165C-4.27942 319.093 -7.61078 319.016 -10.8796 318.935L-10.929 320.933Z" fill="#6FFFE9"/>
<path d="M150.081 321.309C153.418 321.249 156.767 321.185 160.126 321.116L160.085 319.118C156.728 319.187 153.381 319.251 150.045 319.311L150.081 321.309Z" fill="#6FFFE9"/>
<path d="M483.482 321.108C486.482 322.409 489.591 323.642 492.829 324.806L493.505 322.925C490.307 321.776 487.238 320.559 484.278 319.275L483.482 321.108Z" fill="#6FFFE9"/>
<path d="M9.12672 321.362C12.4585 321.423 15.841 321.479 19.2718 321.532L19.3022 319.534C15.8735 319.482 12.4929 319.425 9.16317 319.364L9.12672 321.362Z" fill="#6FFFE9"/>
<path d="M129.956 321.62C133.288 321.577 136.635 321.529 139.994 321.477L139.963 319.48C136.606 319.531 133.261 319.579 129.93 319.622L129.956 321.62Z" fill="#6FFFE9"/>
<path d="M29.2554 321.669C32.5816 321.711 35.9485 321.748 39.3538 321.781L39.3731 319.783C35.9697 319.75 32.6046 319.713 29.2802 319.672L29.2554 321.669Z" fill="#6FFFE9"/>
<path d="M109.835 321.831C113.159 321.804 116.502 321.773 119.861 321.738L119.84 319.74C116.483 319.775 113.142 319.806 109.819 319.833L109.835 321.831Z" fill="#6FFFE9"/>
<path d="M49.4088 321.865C52.7286 321.888 56.0812 321.907 59.4648 321.922L59.4737 319.924C56.0918 319.909 52.7409 319.89 49.4229 319.867L49.4088 321.865Z" fill="#6FFFE9"/>
<path d="M89.7138 321.942C93.0299 321.932 96.3679 321.918 99.7263 321.899L99.7152 319.901C96.3585 319.92 93.0221 319.934 89.7076 319.944L89.7138 321.942Z" fill="#6FFFE9"/>
<path d="M69.5647 321.954C72.881 321.961 76.2243 321.963 79.5926 321.961L79.5914 319.963C76.2247 319.965 72.8832 319.963 69.5685 319.956L69.5647 321.954Z" fill="#6FFFE9"/>
<path d="M720.94 327.63C724.242 326.855 727.472 326.044 730.631 325.198L730.114 323.268C726.975 324.109 723.766 324.914 720.483 325.684L720.94 327.63Z" fill="#6FFFE9"/>
<path d="M502.399 327.924C505.504 328.838 508.725 329.696 512.078 330.499L512.543 328.556C509.223 327.761 506.034 326.911 502.964 326.007L502.399 327.924Z" fill="#6FFFE9"/>
<path d="M701.273 331.653C704.634 331.06 707.927 330.433 711.155 329.774L710.755 327.817C707.545 328.472 704.269 329.096 700.925 329.686L701.273 331.653Z" fill="#6FFFE9"/>
<path d="M521.907 332.616C525.083 333.229 528.372 333.799 531.782 334.325L532.087 332.35C528.7 331.828 525.436 331.263 522.286 330.655L521.907 332.616Z" fill="#6FFFE9"/>
<path d="M681.576 334.639C684.93 334.209 688.224 333.749 691.459 333.26L691.159 331.285C687.94 331.772 684.661 332.23 681.322 332.657L681.576 334.639Z" fill="#6FFFE9"/>
<path d="M541.693 335.687C544.909 336.078 548.227 336.435 551.654 336.757L551.841 334.768C548.431 334.447 545.131 334.092 541.934 333.703L541.693 335.687Z" fill="#6FFFE9"/>
<path d="M661.678 336.766C665.038 336.475 668.342 336.155 671.593 335.809L671.381 333.822C668.144 334.167 664.852 334.485 661.505 334.776L661.678 336.766Z" fill="#6FFFE9"/>
<path d="M641.666 338.139C645.074 337.964 648.429 337.764 651.733 337.537L651.597 335.544C648.304 335.769 644.96 335.969 641.564 336.144L641.666 338.139Z" fill="#6FFFE9"/>
<path d="M561.641 337.577C564.881 337.806 568.212 338.008 571.639 338.182L571.74 336.187C568.326 336.013 565.008 335.812 561.782 335.584L561.641 337.577Z" fill="#6FFFE9"/>
<path d="M621.749 338.848C625.14 338.778 628.484 338.684 631.78 338.567L631.709 336.57C628.423 336.687 625.09 336.78 621.708 336.85L621.749 338.848Z" fill="#6FFFE9"/>
<path d="M581.637 338.602C584.886 338.712 588.217 338.798 591.632 338.863L591.67 336.865C588.264 336.801 584.943 336.714 581.704 336.605L581.637 338.602Z" fill="#6FFFE9"/>
<path d="M606.705 339C608.411 339 610.105 338.994 611.788 338.983L611.774 336.985C610.096 336.996 608.406 337.002 606.705 337.002C604.997 337.002 603.309 336.997 601.64 336.987L601.628 338.985C603.301 338.995 604.993 339 606.705 339Z" fill="#6FFFE9"/>
</svg>
