<svg width="594" height="357" viewBox="0 0 594 357" fill="none" xmlns="http://www.w3.org/2000/svg">
<path d="M337.592 2.53368C340.933 2.54381 344.27 2.58218 347.599 2.64884L347.639 0.649239C344.298 0.582352 340.951 0.543855 337.598 0.533691L337.592 2.53368Z" fill="#0B132B"/>
<path d="M317.59 2.80836C320.927 2.70687 324.262 2.63319 327.594 2.58739L327.566 0.587574C324.223 0.633532 320.877 0.707453 317.529 0.809282L317.59 2.80836Z" fill="#0B132B"/>
<path d="M357.59 2.93463C360.933 3.05914 364.267 3.2125 367.591 3.39476L367.7 1.39776C364.365 1.21485 361.019 1.06096 357.664 0.936012L357.59 2.93463Z" fill="#0B132B"/>
<path d="M297.607 3.74767C300.936 3.53593 304.266 3.35176 307.597 3.19521L307.503 1.19741C304.161 1.35448 300.82 1.53927 297.48 1.75171L297.607 3.74767Z" fill="#0B132B"/>
<path d="M377.559 4.03042C380.9 4.27363 384.228 4.54649 387.542 4.84907L387.724 2.85736C384.398 2.55365 381.057 2.27979 377.704 2.0357L377.559 4.03042Z" fill="#0B132B"/>
<path d="M277.666 5.34841C280.983 5.02649 284.306 4.73206 287.631 4.46515L287.471 2.47156C284.135 2.73935 280.801 3.03477 277.473 3.35776L277.666 5.34841Z" fill="#0B132B"/>
<path d="M397.47 5.84934C400.805 6.21732 404.124 6.61601 407.424 7.04548L407.682 5.06221C404.369 4.63103 401.037 4.23079 397.689 3.8614L397.47 5.84934Z" fill="#0B132B"/>
<path d="M257.79 7.61495C261.092 7.18163 264.403 6.77587 267.72 6.39772L267.493 4.41059C264.165 4.79002 260.843 5.19715 257.53 5.63195L257.79 7.61495Z" fill="#0B132B"/>
<path d="M417.289 8.42982C420.614 8.93075 423.918 9.46374 427.198 10.0288L427.538 8.05788C424.243 7.49035 420.926 6.95512 417.587 6.45213L417.289 8.42982Z" fill="#0B132B"/>
<path d="M238.003 10.5593C241.286 10.0121 244.581 9.49261 247.886 9.00098L247.592 7.02275C244.275 7.51608 240.969 8.03736 237.674 8.58656L238.003 10.5593Z" fill="#0B132B"/>
<path d="M436.997 11.8264C440.298 12.4696 443.573 13.1465 446.82 13.857L447.247 11.9033C443.986 11.1894 440.696 10.5094 437.379 9.86328L436.997 11.8264Z" fill="#0B132B"/>
<path d="M218.334 14.2017C221.593 13.5365 224.868 12.8995 228.157 12.2907L227.793 10.3241C224.492 10.9351 221.205 11.5744 217.934 12.2421L218.334 14.2017Z" fill="#0B132B"/>
<path d="M456.539 16.1063C459.801 16.9032 463.031 17.7354 466.226 18.6029L466.75 16.6728C463.538 15.8007 460.292 14.9642 457.014 14.1634L456.539 16.1063Z" fill="#0B132B"/>
<path d="M198.814 18.5708C202.045 17.782 205.295 17.0221 208.563 16.291L208.127 14.3392C204.846 15.0731 201.583 15.836 198.34 16.6279L198.814 18.5708Z" fill="#0B132B"/>
<path d="M179.485 23.705C182.68 22.7852 185.9 21.895 189.142 21.0345L188.629 19.1015C185.373 19.9655 182.14 20.8594 178.931 21.7831L179.485 23.705Z" fill="#0B132B"/>
<path d="M475.839 21.3519C479.044 22.3163 482.211 23.318 485.336 24.3572L485.967 22.4594C482.823 21.414 479.638 20.4065 476.415 19.4367L475.839 21.3519Z" fill="#0B132B"/>
<path d="M160.394 29.6533C163.547 28.5929 166.729 27.5631 169.938 26.5641L169.343 24.6545C166.12 25.6579 162.924 26.6923 159.757 27.7577L160.394 29.6533Z" fill="#0B132B"/>
<path d="M494.8 27.6662C497.939 28.8196 501.032 30.013 504.075 31.2464L504.826 29.3929C501.762 28.1509 498.649 26.9496 495.489 25.7888L494.8 27.6662Z" fill="#0B132B"/>
<path d="M141.607 36.4765C144.703 35.2647 147.833 34.085 150.997 32.9372L150.315 31.0571C147.136 32.2105 143.99 33.3961 140.878 34.614L141.607 36.4765Z" fill="#0B132B"/>
<path d="M513.288 35.1735C516.357 36.5481 519.368 37.9665 522.318 39.4287L523.206 37.6367C520.232 36.1626 517.197 34.7331 514.106 33.3482L513.288 35.1735Z" fill="#0B132B"/>
<path d="M123.207 44.2482C126.221 42.8757 129.277 41.5365 132.372 40.2306L131.594 38.3879C128.483 39.7009 125.41 41.0476 122.378 42.428L123.207 44.2482Z" fill="#0B132B"/>
<path d="M531.118 44.0204C534.08 45.6476 536.972 47.3232 539.79 49.047L540.834 47.3409C537.988 45.6003 535.07 43.9092 532.081 42.2675L531.118 44.0204Z" fill="#0B132B"/>
<path d="M105.304 53.0561C108.214 51.5096 111.172 49.9979 114.176 48.5211L113.294 46.7262C110.271 48.2121 107.294 49.7334 104.365 51.29L105.304 53.0561Z" fill="#0B132B"/>
<path d="M548.152 54.4544C550.913 56.3427 553.59 58.2828 556.181 60.2749L557.4 58.6895C554.779 56.674 552.071 54.712 549.281 52.8036L548.152 54.4544Z" fill="#0B132B"/>
<path d="M88.0163 63.0193C90.8011 61.2778 93.6429 59.5731 96.5389 57.9052L95.5408 56.1721C92.6244 57.8517 89.7618 59.5689 86.9559 61.3235L88.0163 63.0193Z" fill="#0B132B"/>
<path d="M563.918 66.6089C566.445 68.8137 568.871 71.0757 571.192 73.3952L572.606 71.9805C570.252 69.628 567.793 67.3353 565.233 65.1019L563.918 66.6089Z" fill="#0B132B"/>
<path d="M75.5801 71.3149C76.9148 70.3643 78.2655 69.4233 79.632 68.492L78.5055 66.8393C77.1279 67.7784 75.7659 68.7272 74.4198 69.6859C73.0051 70.6935 71.6137 71.7039 70.2457 72.717L71.4358 74.3243C72.7939 73.3187 74.1752 72.3155 75.5801 71.3149Z" fill="#0B132B"/>
<path d="M55.8023 86.88C58.2882 84.7071 60.874 82.5426 63.5623 80.3878L62.3114 78.8272C59.6015 80.9994 56.9938 83.1821 54.4861 85.3742L55.8023 86.88Z" fill="#0B132B"/>
<path d="M577.946 80.6545C580.129 83.1843 582.193 85.7762 584.134 88.4301L585.749 87.2494C583.775 84.5508 581.677 81.9171 579.46 79.348L577.946 80.6545Z" fill="#0B132B"/>
<path d="M41.3616 100.751C43.5958 98.3799 45.9395 96.0151 48.396 93.6584L47.0114 92.2152C44.5312 94.5946 42.1638 96.9834 39.9059 99.3799L41.3616 100.751Z" fill="#0B132B"/>
<path d="M589.652 96.6921C590.509 98.1053 591.333 99.5345 592.122 100.98L593.878 100.021C593.073 98.5488 592.234 97.0935 591.362 95.655L589.652 96.6921Z" fill="#0B132B"/>
<path d="M28.481 116.062C30.4379 113.433 32.5185 110.807 34.7273 108.188L33.1983 106.898C30.964 109.548 28.8581 112.206 26.8766 114.868L28.481 116.062Z" fill="#0B132B"/>
<path d="M17.627 132.884C19.2011 130.021 20.9103 127.157 22.7603 124.295L21.0806 123.21C19.2054 126.111 17.4717 129.015 15.8745 131.92L17.627 132.884Z" fill="#0B132B"/>
<path d="M9.382 151.068C10.4901 147.991 11.7424 144.906 13.1456 141.817L11.3247 140.99C9.89935 144.127 8.62678 147.262 7.50026 150.391L9.382 151.068Z" fill="#0B132B"/>
<path d="M4.24203 170.339C4.81034 167.106 5.52605 163.856 6.3974 160.595L4.46518 160.079C3.57878 163.396 2.85056 166.703 2.27222 169.993L4.24203 170.339Z" fill="#0B132B"/>
<path d="M2.53423 190.204C2.52669 186.906 2.66202 183.581 2.9496 180.234L0.95694 180.063C0.664268 183.469 0.526566 186.853 0.534239 190.209L2.53423 190.204Z" fill="#0B132B"/>
<path d="M4.29447 210.081C3.72509 206.815 3.2869 203.512 2.9901 200.175L0.99797 200.353C1.29984 203.746 1.74543 207.105 2.32419 210.424L4.29447 210.081Z" fill="#0B132B"/>
<path d="M9.28882 229.427C8.21124 226.283 7.24805 223.089 6.40997 219.851L4.47376 220.352C5.32505 223.641 6.30311 226.884 7.39688 230.075L9.28882 229.427Z" fill="#0B132B"/>
<path d="M17.1304 247.819C15.6146 244.861 14.1939 241.84 12.8796 238.762L11.0403 239.547C12.3734 242.669 13.814 245.732 15.3505 248.731L17.1304 247.819Z" fill="#0B132B"/>
<path d="M27.4202 264.974C25.5318 262.246 23.7182 259.441 21.9915 256.564L20.2767 257.594C22.0262 260.508 23.8632 263.35 25.7758 266.112L27.4202 264.974Z" fill="#0B132B"/>
<path d="M39.8414 280.685C37.6307 278.225 35.4736 275.671 33.3831 273.027L31.8143 274.267C33.9311 276.944 36.1154 279.531 38.354 282.022L39.8414 280.685Z" fill="#0B132B"/>
<path d="M54.135 294.667C51.6447 292.533 49.1833 290.279 46.7657 287.913L45.3667 289.342C47.8155 291.739 50.3095 294.023 52.8336 296.186L54.135 294.667Z" fill="#0B132B"/>
<path d="M70.2264 306.555C67.4734 304.833 64.7161 302.953 61.9734 300.922L60.7832 302.529C63.5663 304.59 66.367 306.5 69.1661 308.251L70.2264 306.555Z" fill="#0B132B"/>
<path d="M83.4027 313.585C81.9184 312.932 80.4229 312.225 78.9195 311.467L78.0187 313.253C79.5523 314.026 81.0795 314.748 82.5972 315.416C84.191 316.117 85.8151 316.805 87.4671 317.479L88.223 315.627C86.5869 314.959 84.9793 314.279 83.4027 313.585Z" fill="#0B132B"/>
<path d="M107.957 322.691C104.571 321.623 101.252 320.513 98.0154 319.36L97.344 321.244C100.606 322.406 103.948 323.524 107.355 324.598L107.957 322.691Z" fill="#0B132B"/>
<path d="M128.157 328.402C124.739 327.534 121.353 326.63 118.013 325.689L117.47 327.614C120.828 328.56 124.231 329.469 127.665 330.34L128.157 328.402Z" fill="#0B132B"/>
<path d="M148.635 333.111C145.204 332.397 141.778 331.649 138.37 330.866L137.923 332.816C141.345 333.601 144.784 334.352 148.227 335.069L148.635 333.111Z" fill="#0B132B"/>
<path d="M169.288 337.027C165.857 336.436 162.404 335.814 158.942 335.159L158.57 337.124C162.043 337.781 165.507 338.405 168.949 338.998L169.288 337.027Z" fill="#0B132B"/>
<path d="M190.062 340.273C186.645 339.791 183.173 339.276 179.663 338.728L179.355 340.704C182.875 341.254 186.356 341.77 189.782 342.253L190.062 340.273Z" fill="#0B132B"/>
<path d="M210.922 342.916C207.537 342.535 204.05 342.12 200.481 341.668L200.23 343.652C203.808 344.105 207.304 344.522 210.699 344.903L210.922 342.916Z" fill="#0B132B"/>
<path d="M231.847 344.954C228.545 344.685 225.047 344.372 221.383 344.015L221.189 346.005C224.863 346.364 228.372 346.677 231.684 346.947L231.847 344.954Z" fill="#0B132B"/>
<path fill-rule="evenodd" clip-rule="evenodd" d="M246.899 345.969C245.458 345.896 243.935 345.81 242.338 345.711L242.215 347.707C243.803 347.806 245.318 347.891 246.754 347.964L246.204 355.527C246.192 355.708 246.229 355.89 246.312 356.053C246.395 356.215 246.521 356.351 246.675 356.447C246.83 356.544 247.008 356.596 247.191 356.598C247.373 356.601 247.552 356.553 247.71 356.461L261.328 348.427C261.892 348.094 261.958 347.199 261.447 346.787L249.134 336.868C248.992 336.753 248.821 336.68 248.64 336.655C248.459 336.63 248.275 336.656 248.108 336.729C247.94 336.801 247.796 336.919 247.69 337.068C247.585 337.217 247.522 337.392 247.509 337.574L246.899 345.969ZM248.337 353.769L259.068 347.438L249.366 339.622L248.337 353.769Z" fill="#0B132B"/>
</svg>
