<svg width="1098" height="1098" viewBox="0 0 1098 1098" fill="none" xmlns="http://www.w3.org/2000/svg">
<path d="M1012.41 1.96594C1008.97 1.43848 1005.54 1.10205 1002.13 0.942871L1002.04 2.94067C1005.37 3.09668 1008.73 3.42627 1012.11 3.94299L1012.41 1.96594Z" fill="#6FFFE9"/>
<path d="M991.801 0.993164C988.344 1.1864 984.919 1.55298 981.529 2.07739L981.835 4.05383C985.162 3.53906 988.523 3.17957 991.912 2.99011L991.801 0.993164Z" fill="#6FFFE9"/>
<path d="M1032.39 7.18762C1029.09 5.95605 1025.8 4.91687 1022.53 4.05859L1022.02 5.99341C1025.23 6.83447 1028.46 7.85327 1031.69 9.0614L1032.39 7.18762Z" fill="#6FFFE9"/>
<path d="M971.414 4.12427C968.072 4.95825 964.773 5.93713 961.52 7.04517L962.165 8.93835C965.367 7.84741 968.613 6.88452 971.898 6.0647L971.414 4.12427Z" fill="#6FFFE9"/>
<path d="M951.898 10.7443C948.737 12.0977 945.627 13.5649 942.575 15.1302L943.487 16.91C946.501 15.3647 949.569 13.9172 952.685 12.5829L951.898 10.7443Z" fill="#6FFFE9"/>
<path d="M1046.48 13.6211C1044.94 12.7849 1043.39 11.9935 1041.86 11.2461L1040.98 13.0453C1042.49 13.7794 1044.01 14.557 1045.52 15.379C1047.01 16.187 1048.47 17.0254 1049.9 17.8932L1050.94 16.1847C1049.48 15.2996 1047.99 14.4447 1046.48 13.6211Z" fill="#6FFFE9"/>
<path d="M933.567 20.1182C930.607 21.8795 927.709 23.7246 924.878 25.6373L925.998 27.2946C928.799 25.4022 931.664 23.5778 934.59 21.837L933.567 20.1182Z" fill="#6FFFE9"/>
<path d="M1067.18 28.5266C1064.72 26.21 1062.12 24.0084 1059.38 21.9294L1058.17 23.5227C1060.85 25.5591 1063.4 27.7147 1065.81 29.9824L1067.18 28.5266Z" fill="#6FFFE9"/>
<path d="M916.511 31.6239C913.752 33.7095 911.068 35.8495 908.466 38.0262L909.749 39.5603C912.327 37.4037 914.985 35.2844 917.717 33.2195L916.511 31.6239Z" fill="#6FFFE9"/>
<path d="M1080.42 44.0575C1078.51 41.241 1076.44 38.5286 1074.23 35.9282L1072.7 37.2258C1074.87 39.7704 1076.89 42.4246 1078.77 45.1808L1080.42 44.0575Z" fill="#6FFFE9"/>
<path d="M900.731 44.8126C898.164 47.1727 895.694 49.5546 893.326 51.9376L894.745 53.3472C897.092 50.9849 899.541 48.624 902.085 46.2849L900.731 44.8126Z" fill="#6FFFE9"/>
<path d="M1090 62.087C1088.72 58.9072 1087.28 55.814 1085.69 52.8152L1083.93 53.7527C1085.48 56.6886 1086.89 59.7179 1088.14 62.8333L1090 62.087Z" fill="#6FFFE9"/>
<path d="M886.254 59.3846C883.87 62.0114 881.621 64.6136 879.516 67.1639L881.059 68.4371C883.144 65.9109 885.372 63.3322 887.735 60.7288L886.254 59.3846Z" fill="#6FFFE9"/>
<path d="M1095.68 81.6891C1095.05 78.3082 1094.26 74.9938 1093.32 71.7532L1091.4 72.308C1092.32 75.486 1093.09 78.738 1093.71 82.0571L1095.68 81.6891Z" fill="#6FFFE9"/>
<path d="M873.174 75.2594C872.121 76.6797 871.122 78.0715 870.178 79.4292L871.5 81C872.432 79.6594 873.74 77.8549 874.781 76.4502L873.174 75.2594Z" fill="#6FFFE9"/>
<path d="M1097.62 101.985C1097.59 98.5387 1097.41 95.1403 1097.1 91.7958L1095.11 91.9849C1095.42 95.2719 1095.59 98.6139 1095.63 102.005L1097.62 101.985Z" fill="#6FFFE9"/>
<path d="M1096.23 122.316C1096.72 118.904 1097.09 115.524 1097.32 112.182L1095.32 112.043C1095.09 115.336 1094.74 118.666 1094.25 122.03L1096.23 122.316Z" fill="#6FFFE9"/>
<path d="M1091.97 142.194C1092.9 138.885 1093.73 135.595 1094.43 132.329L1092.47 131.908C1091.78 135.131 1090.97 138.379 1090.04 141.648L1091.97 142.194Z" fill="#6FFFE9"/>
<path d="M1085.26 161.383C1086.58 158.206 1087.79 155.038 1088.89 151.885L1087.01 151.224C1085.91 154.341 1084.72 157.473 1083.41 160.616L1085.26 161.383Z" fill="#6FFFE9"/>
<path d="M1076.47 179.761C1078.11 176.73 1079.66 173.7 1081.11 170.677L1079.3 169.813C1077.87 172.806 1076.34 175.805 1074.71 178.808L1076.47 179.761Z" fill="#6FFFE9"/>
<path d="M1065.98 197.12C1067.88 194.271 1069.7 191.419 1071.42 188.568L1069.71 187.533C1068 190.359 1066.2 193.185 1064.32 196.009L1065.98 197.12Z" fill="#6FFFE9"/>
<path d="M1053.97 213.574C1056.12 210.873 1058.18 208.165 1060.16 205.453L1058.54 204.273C1056.58 206.964 1054.53 209.65 1052.4 212.33L1053.97 213.574Z" fill="#6FFFE9"/>
<path d="M1040.79 228.943C1043.11 226.427 1045.36 223.901 1047.53 221.367L1046.02 220.064C1043.86 222.58 1041.63 225.088 1039.32 227.587L1040.79 228.943Z" fill="#6FFFE9"/>
<path d="M1026.51 243.381C1028.98 241.04 1031.39 238.687 1033.73 236.323L1032.31 234.916C1029.99 237.264 1027.59 239.602 1025.14 241.928L1026.51 243.381Z" fill="#6FFFE9"/>
<path d="M1011.3 256.885C1013.94 254.683 1016.51 252.466 1019.02 250.237L1017.7 248.742C1015.2 250.957 1012.64 253.16 1010.02 255.349L1011.3 256.885Z" fill="#6FFFE9"/>
<path d="M995.354 269.431C998.115 267.381 1000.82 265.316 1003.46 263.237L1002.22 261.665C999.595 263.733 996.908 265.786 994.162 267.825L995.354 269.431Z" fill="#6FFFE9"/>
<path d="M978.774 281.069C981.625 279.175 984.423 277.265 987.166 275.34L986.017 273.703C983.288 275.618 980.505 277.519 977.667 279.403L978.774 281.069Z" fill="#6FFFE9"/>
<path d="M961.618 291.863C964.548 290.116 967.427 288.352 970.257 286.573L969.192 284.88C966.376 286.651 963.51 288.406 960.594 290.145L961.618 291.863Z" fill="#6FFFE9"/>
<path d="M943.971 301.844C946.969 300.235 949.921 298.609 952.826 296.967L951.842 295.226C948.95 296.861 946.011 298.48 943.025 300.082L943.971 301.844Z" fill="#6FFFE9"/>
<path d="M925.904 311.049C928.965 309.569 931.981 308.072 934.953 306.558L934.046 304.776C931.086 306.283 928.082 307.774 925.034 309.248L925.904 311.049Z" fill="#6FFFE9"/>
<path d="M907.476 319.513C910.594 318.154 913.67 316.777 916.705 315.384L915.871 313.566C912.847 314.954 909.783 316.326 906.677 317.68L907.476 319.513Z" fill="#6FFFE9"/>
<path d="M893.373 325.427C894.971 324.784 896.558 324.135 898.135 323.482L897.37 321.635C896.293 322.08 895.212 322.524 894.126 322.965C893.627 323.168 893.127 323.37 892.626 323.573C891.203 324.146 889.744 324.714 888.25 325.276L888.954 327.148C890.463 326.58 891.936 326.007 893.373 325.427Z" fill="#6FFFE9"/>
<path d="M869.789 333.524C873.14 332.53 876.375 331.517 879.489 330.486L878.86 328.587C875.768 329.612 872.553 330.618 869.22 331.607L869.789 333.524Z" fill="#6FFFE9"/>
<path d="M850.182 338.831C853.635 337.974 856.998 337.104 860.265 336.22L859.743 334.29C856.49 335.169 853.141 336.036 849.701 336.89L850.182 338.831Z" fill="#6FFFE9"/>
<path d="M830.878 343.295C834.233 342.569 837.521 341.835 840.74 341.091L840.289 339.143C837.081 339.884 833.802 340.616 830.455 341.34L830.878 343.295Z" fill="#6FFFE9"/>
<path d="M811.262 347.299C814.53 346.668 817.746 346.03 820.909 345.386L820.51 343.427C817.354 344.069 814.144 344.705 810.882 345.335L811.262 347.299Z" fill="#6FFFE9"/>
<path d="M791.317 350.971C794.692 350.377 798.022 349.779 801.305 349.175L800.943 347.208C797.666 347.811 794.341 348.409 790.97 349.001L791.317 350.971Z" fill="#6FFFE9"/>
<path d="M771.656 354.297C775.011 353.75 778.327 353.2 781.604 352.646L781.271 350.674C777.998 351.227 774.685 351.777 771.335 352.323L771.656 354.297Z" fill="#6FFFE9"/>
<path d="M751.837 357.425C755.107 356.925 758.346 356.422 761.553 355.916L761.242 353.941C758.037 354.446 754.801 354.948 751.534 355.448L751.837 357.425Z" fill="#6FFFE9"/>
<path d="M731.861 360.403C735.249 359.91 738.608 359.416 741.937 358.92L741.643 356.942C738.315 357.438 734.958 357.932 731.573 358.424L731.861 360.403Z" fill="#6FFFE9"/>
<path d="M717.507 362.458C719.003 362.247 720.495 362.035 721.981 361.824L721.699 359.844C718.444 360.307 715.164 360.769 711.862 361.23L712.138 363.211C713.935 362.96 715.725 362.709 717.507 362.458Z" fill="#6FFFE9"/>
<path d="M692.052 365.969C695.442 365.511 698.81 365.052 702.157 364.593L701.885 362.611C698.54 363.071 695.172 363.529 691.784 363.988L692.052 365.969Z" fill="#6FFFE9"/>
<path d="M672.359 368.601C675.677 368.162 678.978 367.724 682.26 367.285L681.996 365.303C678.714 365.741 675.414 366.18 672.096 366.618L672.359 368.601Z" fill="#6FFFE9"/>
<path d="M659.356 370.309L662.352 369.917L662.092 367.934C658.765 368.37 655.422 368.806 652.063 369.243L652.321 371.226C654.674 370.921 657.019 370.615 659.356 370.309Z" fill="#6FFFE9"/>
<path d="M632.554 373.785C635.875 373.357 639.184 372.93 642.479 372.503L642.222 370.52C638.928 370.946 635.619 371.374 632.298 371.802L632.554 373.785Z" fill="#6FFFE9"/>
<path d="M612.548 376.361L622.55 375.074L622.295 373.09L612.292 374.377L612.548 376.361Z" fill="#6FFFE9"/>
<path d="M592.747 378.911C596.066 378.483 599.377 378.056 602.677 377.631L602.422 375.647C599.121 376.072 595.811 376.499 592.491 376.927L592.747 378.911Z" fill="#6FFFE9"/>
<path d="M572.766 381.5C576.106 381.065 579.437 380.633 582.761 380.202L582.504 378.219C580.64 378.46 578.773 378.703 576.904 378.945C575.44 379.135 573.975 379.326 572.508 379.517L572.766 381.5Z" fill="#6FFFE9"/>
<path d="M552.952 384.097C556.267 383.66 559.576 383.224 562.879 382.792L562.619 380.809C559.316 381.241 556.006 381.677 552.69 382.115L552.952 384.097Z" fill="#6FFFE9"/>
<path d="M533.002 386.754C536.336 386.306 539.664 385.861 542.988 385.418L542.724 383.436C540.475 383.735 538.223 384.036 535.97 384.338C534.892 384.483 533.814 384.627 532.736 384.772L533.002 386.754Z" fill="#6FFFE9"/>
<path d="M513.181 389.45C516.491 388.994 519.799 388.542 523.103 388.093L522.833 386.111C519.529 386.56 516.22 387.013 512.908 387.468L513.181 389.45Z" fill="#6FFFE9"/>
<path d="M493.283 392.223C496.604 391.754 499.923 391.288 503.239 390.826L502.963 388.845C499.645 389.307 496.325 389.773 493.003 390.243L493.283 392.223Z" fill="#6FFFE9"/>
<path d="M473.449 395.068C476.755 394.586 480.061 394.109 483.366 393.635L483.082 391.655C479.776 392.129 476.468 392.607 473.16 393.089L473.449 395.068Z" fill="#6FFFE9"/>
<path d="M453.609 398.007C456.915 397.509 460.221 397.015 463.528 396.525L463.235 394.547C459.927 395.037 456.618 395.531 453.311 396.029L453.609 398.007Z" fill="#6FFFE9"/>
<path d="M433.774 401.053C437.077 400.536 440.382 400.024 443.689 399.516L443.385 397.539C440.077 398.047 436.77 398.56 433.465 399.077L433.774 401.053Z" fill="#6FFFE9"/>
<path d="M413.99 404.212C417.281 403.675 420.576 403.144 423.873 402.618L423.558 400.643C420.258 401.169 416.962 401.701 413.668 402.238L413.99 404.212Z" fill="#6FFFE9"/>
<path d="M394.181 407.511C397.48 406.949 400.784 406.393 404.092 405.842L403.763 403.869C400.453 404.421 397.146 404.977 393.845 405.54L394.181 407.511Z" fill="#6FFFE9"/>
<path d="M374.453 410.95C377.729 410.365 381.012 409.786 384.3 409.213L383.956 407.243C380.666 407.817 377.38 408.396 374.102 408.981L374.453 410.95Z" fill="#6FFFE9"/>
<path d="M354.696 414.564C357.99 413.946 361.292 413.335 364.601 412.729L364.241 410.762C360.929 411.368 357.624 411.98 354.327 412.598L354.696 414.564Z" fill="#6FFFE9"/>
<path d="M335.035 418.351C338.294 417.706 341.562 417.068 344.839 416.437L344.461 414.473C341.181 415.105 337.909 415.743 334.647 416.389L335.035 418.351Z" fill="#6FFFE9"/>
<path d="M315.356 422.353C318.642 421.665 321.939 420.986 325.246 420.313L324.848 418.353C321.537 419.026 318.236 419.707 314.947 420.395L315.356 422.353Z" fill="#6FFFE9"/>
<path d="M295.785 426.569C299.022 425.851 302.272 425.14 305.534 424.438L305.113 422.482C301.847 423.186 298.593 423.897 295.352 424.616L295.785 426.569Z" fill="#6FFFE9"/>
<path d="M276.21 431.05C279.481 430.278 282.767 429.514 286.068 428.759L285.622 426.809C282.317 427.565 279.026 428.33 275.75 429.104L276.21 431.05Z" fill="#6FFFE9"/>
<path d="M256.775 435.795C259.981 434.986 263.205 434.186 266.444 433.396L265.97 431.453C262.726 432.245 259.497 433.046 256.286 433.856L256.775 435.795Z" fill="#6FFFE9"/>
<path d="M237.332 440.876C240.576 439.998 243.841 439.13 247.124 438.273L246.619 436.338C243.33 437.197 240.06 438.066 236.809 438.946L237.332 440.876Z" fill="#6FFFE9"/>
<path d="M218.113 446.273C221.273 445.352 224.456 444.442 227.659 443.543L227.119 441.617C223.909 442.518 220.72 443.43 217.553 444.353L218.113 446.273Z" fill="#6FFFE9"/>
<path d="M198.841 452.116C202.039 451.107 205.263 450.111 208.512 449.126L207.932 447.212C204.676 448.199 201.445 449.197 198.239 450.209L198.841 452.116Z" fill="#6FFFE9"/>
<path d="M179.97 458.323C183.061 457.262 186.18 456.215 189.325 455.181L188.7 453.281C185.547 454.318 182.42 455.368 179.321 456.431L179.97 458.323Z" fill="#6FFFE9"/>
<path d="M160.945 465.152C164.064 463.98 167.217 462.822 170.401 461.68L169.726 459.797C166.532 460.943 163.37 462.104 160.241 463.28L160.945 465.152Z" fill="#6FFFE9"/>
<path d="M142.443 472.451C145.488 471.189 148.57 469.944 151.689 468.715L150.955 466.854C147.827 468.088 144.734 469.337 141.678 470.603L142.443 472.451Z" fill="#6FFFE9"/>
<path d="M124.017 480.504C127.005 479.125 130.035 477.765 133.106 476.423L132.305 474.591C129.222 475.938 126.179 477.303 123.179 478.688L124.017 480.504Z" fill="#6FFFE9"/>
<path d="M106.011 489.312C108.997 487.761 112.035 486.232 115.123 484.724L114.246 482.927C111.143 484.442 108.09 485.978 105.089 487.537L106.011 489.312Z" fill="#6FFFE9"/>
<path d="M88.708 498.894C91.4872 497.25 94.3221 495.628 97.2112 494.029L96.2425 492.279C93.3374 493.887 90.4858 495.519 87.6896 497.173L88.708 498.894Z" fill="#6FFFE9"/>
<path d="M71.6943 509.736C74.3972 507.876 77.1678 506.043 80.0042 504.236L78.9296 502.549C76.0741 504.368 73.2836 506.214 70.5605 508.089L71.6943 509.736Z" fill="#6FFFE9"/>
<path d="M55.6924 521.726C58.277 519.609 60.9445 517.524 63.6924 515.471L62.4953 513.869C59.7246 515.939 57.0337 518.042 54.4251 520.178L55.6924 521.726Z" fill="#6FFFE9"/>
<path d="M40.9733 535.045C43.2856 532.719 45.692 530.429 48.1899 528.173L46.8495 526.689C44.326 528.967 41.8935 531.283 39.5548 533.635L40.9733 535.045Z" fill="#6FFFE9"/>
<path d="M27.884 549.914C29.8568 547.357 31.9361 544.84 34.1187 542.363L32.6179 541.041C30.4077 543.55 28.3009 546.1 26.3007 548.692L27.884 549.914Z" fill="#6FFFE9"/>
<path d="M16.8802 566.571C18.4698 563.704 20.184 560.883 22.0191 558.108L20.3507 557.005C18.4878 559.823 16.7466 562.688 15.1311 565.601L16.8802 566.571Z" fill="#6FFFE9"/>
<path d="M8.74731 584.663C9.83963 581.536 11.0695 578.46 12.433 575.433L10.6094 574.611C9.22241 577.69 7.97098 580.821 6.85919 584.004L8.74731 584.663Z" fill="#6FFFE9"/>
<path d="M3.90768 603.825C4.43234 600.549 5.09711 597.325 5.89822 594.151L3.95904 593.661C3.14349 596.892 2.46683 600.175 1.93283 603.509L3.90768 603.825Z" fill="#6FFFE9"/>
<path d="M2.46396 623.555C2.43075 620.258 2.52972 617.01 2.75766 613.809L0.762724 613.667C0.530882 616.922 0.430296 620.225 0.464079 623.575L2.46396 623.555Z" fill="#6FFFE9"/>
<path d="M4.19708 643.44C3.65777 640.093 3.24603 636.793 2.95883 633.538L0.966582 633.714C1.25805 637.017 1.67584 640.365 2.22253 643.758L4.19708 643.44Z" fill="#6FFFE9"/>
<path d="M8.62649 662.872C7.65506 659.549 6.80188 656.268 6.06445 653.03L4.11438 653.474C4.86102 656.753 5.72442 660.073 6.70682 663.433L8.62649 662.872Z" fill="#6FFFE9"/>
<path d="M15.1112 681.424C13.86 678.334 12.7055 675.278 11.646 672.257L9.75863 672.919C10.829 675.971 11.9947 679.056 13.2574 682.175L15.1112 681.424Z" fill="#6FFFE9"/>
<path d="M21.4001 695.565C20.6276 693.967 19.8798 692.378 19.1567 690.799L17.3381 691.631C18.0673 693.224 18.821 694.825 19.5997 696.435C20.359 698.005 21.1207 699.561 21.8846 701.103L23.6766 700.215C22.9155 698.679 22.1567 697.129 21.4001 695.565Z" fill="#6FFFE9"/>
<path d="M32.9145 717.962C31.3575 715.115 29.809 712.214 28.2693 709.257L26.4953 710.18C28.0413 713.15 29.5962 716.063 31.1599 718.921L32.9145 717.962Z" fill="#6FFFE9"/>
<path d="M42.92 735.309C41.1838 732.456 39.4574 729.541 37.7409 726.56L36.0078 727.558C37.7322 730.552 39.4668 733.482 41.2115 736.349L42.92 735.309Z" fill="#6FFFE9"/>
<path d="M53.6241 751.932C51.7919 749.246 49.9696 746.495 48.1574 743.679L46.4756 744.761C48.2972 747.593 50.1295 750.358 51.9719 753.059L53.6241 751.932Z" fill="#6FFFE9"/>
<path d="M65.3238 768.054C63.3528 765.505 61.3922 762.888 59.4421 760.202L57.8235 761.377C59.7852 764.079 61.758 766.713 63.7415 769.278L65.3238 768.054Z" fill="#6FFFE9"/>
<path d="M78.0913 783.477C75.9144 781.026 73.7488 778.5 71.5949 775.897L70.054 777.172C72.2226 779.792 74.4034 782.336 76.596 784.805L78.0913 783.477Z" fill="#6FFFE9"/>
<path d="M91.8623 797.859C89.477 795.554 87.1038 793.168 84.7432 790.698L83.2974 792.08C85.6761 794.569 88.068 796.974 90.4726 799.297L91.8623 797.859Z" fill="#6FFFE9"/>
<path d="M106.713 811.059C104.147 808.969 101.594 806.794 99.0543 804.532L97.7243 806.026C100.286 808.307 102.861 810.5 105.45 812.609L106.713 811.059Z" fill="#6FFFE9"/>
<path d="M122.664 822.895C119.934 821.059 117.217 819.139 114.514 817.131L113.321 818.736C116.05 820.763 118.792 822.701 121.548 824.554L122.664 822.895Z" fill="#6FFFE9"/>
<path d="M139.662 833.181C136.771 831.617 133.892 829.97 131.025 828.234L129.99 829.945C132.884 831.698 135.791 833.361 138.711 834.94L139.662 833.181Z" fill="#6FFFE9"/>
<path d="M157.584 841.775C154.548 840.497 151.523 839.137 148.512 837.693L147.647 839.496C150.688 840.955 153.742 842.327 156.808 843.619L157.584 841.775Z" fill="#6FFFE9"/>
<path d="M176.253 848.618C173.101 847.626 169.96 846.559 166.83 845.413L166.142 847.291C169.302 848.448 172.472 849.525 175.653 850.526L176.253 848.618Z" fill="#6FFFE9"/>
<path d="M195.474 853.75C192.24 853.032 189.014 852.247 185.8 851.39L185.285 853.322C188.527 854.187 191.78 854.978 195.041 855.702L195.474 853.75Z" fill="#6FFFE9"/>
<path d="M394.604 855.04C391.278 855.064 387.945 855.12 384.605 855.202L384.654 857.201C387.983 857.12 391.305 857.064 394.619 857.04L394.604 855.04Z" fill="#6FFFE9"/>
<path d="M414.641 855.312C411.317 855.189 407.983 855.109 404.641 855.065L404.615 857.065C407.942 857.108 411.26 857.189 414.567 857.311L414.641 855.312Z" fill="#6FFFE9"/>
<path d="M374.585 855.519C371.26 855.647 367.929 855.795 364.593 855.959L364.691 857.956C368.021 857.793 371.345 857.645 374.662 857.518L374.585 855.519Z" fill="#6FFFE9"/>
<path d="M215.063 857.299C211.777 856.829 208.499 856.301 205.23 855.71L204.874 857.679C208.168 858.274 211.471 858.806 214.78 859.279L215.063 857.299Z" fill="#6FFFE9"/>
<path d="M434.658 856.615C431.34 856.297 428.012 856.033 424.673 855.818L424.544 857.814C427.863 858.028 431.171 858.29 434.467 858.606L434.658 856.615Z" fill="#6FFFE9"/>
<path d="M354.593 856.491C351.269 856.68 347.941 856.879 344.61 857.085L344.733 859.081C348.062 858.876 351.387 858.677 354.707 858.488L354.593 856.491Z" fill="#6FFFE9"/>
<path d="M333.268 857.797C330.396 857.98 327.522 858.162 324.646 858.342L324.771 860.338C326.14 860.252 327.508 860.166 328.877 860.08C330.351 859.987 331.825 859.893 333.299 859.799L334.751 859.707L334.624 857.711L333.268 857.797Z" fill="#6FFFE9"/>
<path d="M454.552 859.236C451.259 858.674 447.953 858.179 444.635 857.744L444.375 859.727C447.669 860.159 450.95 860.65 454.216 861.207L454.552 859.236Z" fill="#6FFFE9"/>
<path d="M234.87 859.462C231.557 859.205 228.25 858.899 224.95 858.541L224.734 860.529C228.055 860.89 231.383 861.197 234.715 861.456L234.87 859.462Z" fill="#6FFFE9"/>
<path d="M314.667 858.948C311.341 859.143 308.015 859.328 304.69 859.501L304.793 861.498C308.124 861.325 311.454 861.139 314.784 860.944L314.667 858.948Z" fill="#6FFFE9"/>
<path d="M294.708 859.973C291.38 860.114 288.054 860.236 284.73 860.335L284.789 862.334C288.123 862.234 291.458 862.112 294.792 861.971L294.708 859.973Z" fill="#6FFFE9"/>
<path d="M254.787 860.468C251.462 860.383 248.141 860.261 244.826 860.095L244.727 862.093C248.059 862.259 251.395 862.382 254.736 862.467L254.787 860.468Z" fill="#6FFFE9"/>
<path d="M274.744 860.558C271.416 860.605 268.09 860.625 264.769 860.612L264.761 862.612C268.096 862.625 271.433 862.605 274.773 862.557L274.744 860.558Z" fill="#6FFFE9"/>
<path d="M474.175 863.448C470.936 862.599 467.682 861.828 464.413 861.128L463.994 863.083C467.234 863.777 470.459 864.542 473.668 865.382L474.175 863.448Z" fill="#6FFFE9"/>
<path d="M493.319 869.475C490.174 868.307 487.013 867.227 483.834 866.227L483.234 868.135C486.381 869.125 489.511 870.194 492.623 871.35L493.319 869.475Z" fill="#6FFFE9"/>
<path d="M511.739 877.446C508.735 875.949 505.713 874.546 502.673 873.23L501.879 875.066C504.886 876.367 507.876 877.756 510.848 879.236L511.739 877.446Z" fill="#6FFFE9"/>
<path d="M529.189 887.36C526.368 885.548 523.529 883.832 520.671 882.206L519.682 883.945C522.509 885.552 525.318 887.25 528.108 889.043L529.189 887.36Z" fill="#6FFFE9"/>
<path d="M545.471 899.083C542.856 896.986 540.223 894.983 537.571 893.07L536.401 894.692C539.025 896.585 541.631 898.567 544.22 900.644L545.471 899.083Z" fill="#6FFFE9"/>
<path d="M560.476 912.39C558.086 910.057 555.678 907.815 553.254 905.659L551.925 907.154C554.326 909.289 556.711 911.51 559.079 913.822L560.476 912.39Z" fill="#6FFFE9"/>
<path d="M574.195 927.029C572.01 924.489 569.809 922.034 567.591 919.663L566.13 921.029C568.329 923.38 570.512 925.813 572.679 928.333L574.195 927.029Z" fill="#6FFFE9"/>
<path d="M583.795 938.894C582.741 937.511 581.683 936.15 580.62 934.81L579.053 936.053C580.108 937.382 581.158 938.733 582.204 940.106C583.137 941.331 584.046 942.59 584.932 943.883L586.582 942.752C585.678 941.433 584.749 940.146 583.795 938.894Z" fill="#6FFFE9"/>
<path d="M595.96 959.285C594.588 956.384 593.136 953.56 591.598 950.833L589.856 951.815C591.369 954.498 592.799 957.279 594.152 960.14L595.96 959.285Z" fill="#6FFFE9"/>
<path d="M603.056 976.873C602.021 973.865 600.92 970.896 599.75 967.982L597.894 968.727C599.051 971.608 600.14 974.545 601.165 977.524L603.056 976.873Z" fill="#6FFFE9"/>
<path d="M608.46 995.031C607.677 991.975 606.839 988.926 605.941 985.899L604.024 986.468C604.914 989.469 605.745 992.494 606.522 995.527L608.46 995.031Z" fill="#6FFFE9"/>
<path d="M612.558 1013.51C611.973 1010.44 611.34 1007.35 610.653 1004.24L608.7 1004.67C609.383 1007.76 610.012 1010.83 610.593 1013.89L612.558 1013.51Z" fill="#6FFFE9"/>
<path d="M615.603 1032.19C615.182 1029.13 614.716 1026 614.199 1022.82L612.225 1023.15C612.739 1026.3 613.203 1029.42 613.622 1032.46L615.603 1032.19Z" fill="#6FFFE9"/>
<path d="M617.753 1050.96C617.476 1047.96 617.155 1044.82 616.783 1041.57L614.796 1041.8C615.167 1045.03 615.486 1048.16 615.762 1051.15L617.753 1050.96Z" fill="#6FFFE9"/>
<path d="M619.091 1069.86C618.953 1067.04 618.769 1063.86 618.523 1060.39L616.528 1060.53C616.772 1063.98 616.956 1067.15 617.093 1069.95L619.091 1069.86Z" fill="#6FFFE9"/>
<path fill-rule="evenodd" clip-rule="evenodd" d="M617.496 1083C617.496 1082.94 617.495 1082.87 617.494 1082.8C617.491 1082.47 617.487 1082.08 617.48 1081.62C617.471 1080.98 617.457 1080.22 617.437 1079.34L619.436 1079.3C619.471 1080.81 619.487 1081.98 619.494 1082.78C619.495 1082.86 619.496 1082.93 619.496 1083H628C628.183 1083 628.362 1083.05 628.518 1083.14C628.674 1083.24 628.802 1083.37 628.886 1083.54C628.971 1083.7 629.01 1083.88 628.999 1084.06C628.987 1084.24 628.926 1084.42 628.822 1084.57L619.822 1097.57C619.448 1098.11 618.55 1098.11 618.177 1097.57L609.177 1084.57C609.074 1084.42 609.014 1084.24 609.003 1084.06C608.992 1083.88 609.031 1083.7 609.116 1083.54C609.2 1083.38 609.328 1083.24 609.483 1083.15C609.639 1083.05 609.818 1083 610 1083H617.496ZM611.908 1085L619 1095.24L626.092 1085H611.908Z" fill="#6FFFE9"/>
<path d="M593.324 954C594.234 955.729 595.112 957.492 595.96 959.285L594.152 960.14C593.163 958.048 592.132 955.999 591.058 954H593.324Z" fill="#1C2541"/>
<path d="M599.75 967.982C600.92 970.896 602.021 973.865 603.056 976.873L601.165 977.524C600.14 974.545 599.051 971.608 597.894 968.727L599.75 967.982Z" fill="#1C2541"/>
<path d="M608.46 995.031C607.677 991.975 606.839 988.926 605.941 985.899L604.024 986.468C604.914 989.469 605.745 992.494 606.522 995.527L608.46 995.031Z" fill="#1C2541"/>
<path d="M610.653 1004.24C611.34 1007.35 611.973 1010.44 612.558 1013.51L610.593 1013.89C610.012 1010.83 609.383 1007.76 608.7 1004.67L610.653 1004.24Z" fill="#1C2541"/>
<path d="M615.603 1032.19C615.182 1029.13 614.716 1026 614.199 1022.82L612.225 1023.15C612.739 1026.3 613.203 1029.42 613.622 1032.46L615.603 1032.19Z" fill="#1C2541"/>
<path d="M616.783 1041.57C617.155 1044.82 617.476 1047.96 617.753 1050.96L615.762 1051.15C615.486 1048.16 615.167 1045.03 614.796 1041.8L616.783 1041.57Z" fill="#1C2541"/>
<path d="M619.091 1069.86C618.953 1067.04 618.769 1063.86 618.523 1060.39L616.528 1060.53C616.772 1063.98 616.956 1067.15 617.093 1069.95L619.091 1069.86Z" fill="#1C2541"/>
<path fill-rule="evenodd" clip-rule="evenodd" d="M617.494 1082.8L617.496 1083H610C609.818 1083 609.639 1083.05 609.483 1083.15C609.328 1083.24 609.2 1083.38 609.116 1083.54C609.084 1083.6 609.058 1083.66 609.04 1083.73C609.009 1083.83 608.996 1083.95 609.003 1084.06C609.014 1084.24 609.074 1084.42 609.177 1084.57L618.177 1097.57C618.55 1098.11 619.448 1098.11 619.822 1097.57L628.822 1084.57C628.926 1084.42 628.987 1084.24 628.999 1084.06C629.004 1083.98 628.999 1083.9 628.986 1083.83C628.968 1083.73 628.935 1083.63 628.886 1083.54C628.802 1083.37 628.674 1083.24 628.518 1083.14C628.362 1083.05 628.183 1083 628 1083H619.496L619.494 1082.78C619.487 1081.98 619.471 1080.81 619.436 1079.3L617.437 1079.34C617.457 1080.22 617.471 1080.98 617.48 1081.62C617.487 1082.08 617.491 1082.47 617.494 1082.8ZM619 1095.24L611.908 1085H626.092L619 1095.24Z" fill="#1C2541"/>
</svg>
